<svg width="16" height="16" viewBox="0 0 16 16" fill="none" xmlns="http://www.w3.org/2000/svg">
<path fill-rule="evenodd" clip-rule="evenodd" d="M6.98596 14.986C6.98596 15.546 7.43996 16 7.99999 16C8.56002 16 9.01402 15.546 9.01402 14.986V9.01402H14.986C15.546 9.01402 16 8.56002 16 7.99999C16 7.43996 15.546 6.98596 14.986 6.98596H9.01402V1.01403C9.01402 0.453996 8.56002 0 7.99999 0C7.43996 0 6.98596 0.453996 6.98596 1.01403V6.98596H1.01403C0.453996 6.98596 0 7.43996 0 7.99999C0 8.56002 0.453996 9.01402 1.01403 9.01402H6.98596V14.986Z" fill="#5D68FE"/>
</svg>
