<svg width="24" height="24" viewBox="0 0 24 24" fill="none" xmlns="http://www.w3.org/2000/svg">
<path d="M9.75313 9.91714V17.4171C9.75496 17.4727 9.74527 17.5281 9.72467 17.5797C9.70406 17.6314 9.67299 17.6782 9.6334 17.7172C9.59381 17.7563 9.54657 17.7867 9.49465 17.8066C9.44272 17.8265 9.38724 17.8355 9.3317 17.8329H8.48598C8.43031 17.8355 8.37471 17.8265 8.32268 17.8065C8.27066 17.7865 8.22335 17.756 8.18374 17.7168C8.14413 17.6775 8.11309 17.6306 8.09257 17.5787C8.07206 17.5269 8.06252 17.4714 8.06455 17.4157V9.91571C8.06272 9.86014 8.07241 9.80478 8.09301 9.75314C8.11362 9.70149 8.14469 9.65467 8.18428 9.61562C8.22387 9.57657 8.27111 9.54614 8.32303 9.52624C8.37496 9.50634 8.43044 9.49741 8.48598 9.5H9.32884C9.38451 9.49739 9.44012 9.50637 9.49214 9.52635C9.54416 9.54633 9.59148 9.5769 9.63108 9.6161C9.67069 9.65531 9.70174 9.7023 9.72225 9.75412C9.74277 9.80594 9.75231 9.86145 9.75027 9.91714H9.7517H9.75313ZM13.1303 9.91714V17.4171C13.1321 17.4728 13.1224 17.5283 13.1017 17.5801C13.081 17.6318 13.0498 17.6787 13.0101 17.7178C12.9703 17.7569 12.9229 17.7873 12.8708 17.8071C12.8187 17.8269 12.7631 17.8357 12.7074 17.8329H11.8646C11.8089 17.8355 11.7533 17.8265 11.7013 17.8065C11.6492 17.7865 11.6019 17.756 11.5623 17.7168C11.5227 17.6775 11.4917 17.6306 11.4711 17.5787C11.4506 17.5269 11.4411 17.4714 11.4431 17.4157V9.91571C11.4413 9.86014 11.451 9.80478 11.4716 9.75314C11.4922 9.70149 11.5233 9.65467 11.5629 9.61562C11.6024 9.57657 11.6497 9.54614 11.7016 9.52624C11.7535 9.50634 11.809 9.49741 11.8646 9.5H12.7074C12.7631 9.49739 12.8187 9.50637 12.8707 9.52635C12.9227 9.54633 12.97 9.5769 13.0097 9.6161C13.0493 9.65531 13.0803 9.7023 13.1008 9.75412C13.1213 9.80594 13.1309 9.86145 13.1288 9.91714H13.1303ZM16.5074 9.91714V17.4171C16.5093 17.4728 16.4995 17.5283 16.4788 17.5801C16.4582 17.6318 16.4269 17.6787 16.3872 17.7178C16.3475 17.7569 16.3 17.7873 16.2479 17.8071C16.1959 17.8269 16.1402 17.8357 16.0846 17.8329H15.2417C15.186 17.8355 15.1304 17.8265 15.0784 17.8065C15.0264 17.7865 14.9791 17.756 14.9395 17.7168C14.8998 17.6775 14.8688 17.6306 14.8483 17.5787C14.8278 17.5269 14.8182 17.4714 14.8203 17.4157L14.8188 9.91571C14.817 9.86014 14.8267 9.80478 14.8473 9.75314C14.8679 9.70149 14.899 9.65467 14.9386 9.61562C14.9782 9.57657 15.0254 9.54614 15.0773 9.52624C15.1292 9.50634 15.1847 9.49741 15.2403 9.5H16.0846C16.1402 9.49739 16.1958 9.50637 16.2479 9.52635C16.2999 9.54633 16.3472 9.5769 16.3868 9.6161C16.4264 9.65531 16.4575 9.7023 16.478 9.75412C16.4985 9.80594 16.508 9.86145 16.506 9.91714H16.5074ZM18.1946 19.3443V7H6.37741V19.3429C6.37401 19.6591 6.47326 19.9679 6.66027 20.2229C6.72598 20.2971 6.77313 20.3329 6.79884 20.3329H17.7731C17.7988 20.3329 17.8446 20.2971 17.9117 20.2229C18.0989 19.9684 18.1987 19.6602 18.196 19.3443H18.1946ZM9.3317 5.33286H15.2403L14.6074 3.81C14.5528 3.73633 14.473 3.68545 14.3831 3.66714H10.2017C10.1119 3.68545 10.032 3.73633 9.97741 3.81L9.3317 5.33286ZM21.5717 5.75V6.58286C21.5737 6.63855 21.5642 6.69406 21.5437 6.74588C21.5232 6.7977 21.4921 6.84469 21.4525 6.8839C21.4129 6.9231 21.3656 6.95367 21.3136 6.97365C21.2615 6.99363 21.2059 7.00261 21.1503 7H19.8831V19.3429C19.8831 20.0643 19.6774 20.6857 19.2631 21.2129C18.8488 21.7371 18.3531 22 17.7731 22H6.79884C6.21884 22 5.7217 21.7457 5.30884 21.2386C4.89455 20.73 4.68884 20.1157 4.68884 19.3957V7H3.4217C3.36603 7.00261 3.31042 6.99363 3.2584 6.97365C3.20637 6.95367 3.15906 6.9231 3.11945 6.8839C3.07985 6.84469 3.0488 6.7977 3.02829 6.74588C3.00777 6.69406 2.99823 6.63855 3.00027 6.58286V5.75C2.99823 5.69431 3.00777 5.6388 3.02829 5.58698C3.0488 5.53516 3.07985 5.48816 3.11945 5.44896C3.15906 5.40975 3.20637 5.37919 3.2584 5.35921C3.31042 5.33922 3.36603 5.33025 3.4217 5.33286H7.49741L8.4217 3.15857C8.55313 2.83714 8.79027 2.56429 9.13313 2.33857C9.47598 2.11286 9.82455 2 10.176 2H14.396C14.7474 2 15.096 2.11286 15.4388 2.33857C15.7817 2.56429 16.0188 2.83857 16.1503 3.15857L17.0746 5.33286H21.1503C21.2059 5.33025 21.2615 5.33922 21.3136 5.35921C21.3656 5.37919 21.4129 5.40975 21.4525 5.44896C21.4921 5.48816 21.5232 5.53516 21.5437 5.58698C21.5642 5.6388 21.5737 5.69431 21.5717 5.75Z" fill="black"/>
</svg>
