<svg xmlns="http://www.w3.org/2000/svg" xmlns:xlink="http://www.w3.org/1999/xlink" fill="none" version="1.1" width="12" height="12" viewBox="0 0 12 12"><defs><clipPath id="master_svg0_32_03745"><rect x="0" y="0" width="12" height="12" rx="0"/></clipPath></defs><g clip-path="url(#master_svg0_32_03745)"><g transform="matrix(1,-5.551115123125783e-17,5.551115123125783e-17,1,0,1.6653345369377348e-16)" style="opacity:0.4000000059604645;"><path d="M7.58575193359375,6.00000296875L3.34315393359375,1.75740296875Q3.27350993359375,1.68775296875,3.21879093359375,1.60586296875Q3.16407193359375,1.52397296875,3.12638133359375,1.43297296875Q3.08869033359375,1.34198296875,3.06947563359375,1.24538296875Q3.05026091349375,1.14878296875,3.05026091349375,1.05029296875Q3.05026091349375,0.95180096875,3.06947563359375,0.85520296875Q3.08869033359375,0.75860396875,3.12638133359375,0.66760896875Q3.16407193359375,0.57661496875,3.21879093359375,0.49472296875Q3.27350993359375,0.41282996875,3.34315393359375,0.34318596875Q3.48380593359375,0.20253396875,3.66757793359375,0.12641346874999998Q3.85134893359375,0.05029296875,4.05026193359375,0.05029296875Q4.24917193359375,0.05029296875,4.43294193359375,0.12641346874999998Q4.61671193359375,0.20253396875,4.75737193359375,0.34318596875L9.707111933593751,5.29293296875Q9.77676193359375,5.36257296875,9.83148193359375,5.44447296875Q9.88619193359375,5.52636296875,9.92388193359375,5.61735296875Q9.961581933593749,5.70835296875,9.98079193359375,5.80495296875Q10.00001193359375,5.90154296875,10.00001193359375,6.00004296875Q10.00001193359375,6.09853296875,9.98079193359375,6.19513296875Q9.961581933593749,6.29173296875,9.92388193359375,6.38272296875Q9.88619193359375,6.47371296875,9.83148193359375,6.55561296875Q9.77676193359375,6.63750296875,9.707111933593751,6.70714296875Q9.70336193359375,6.71090296875,9.699571933593749,6.71461296875L4.75730193359375,11.65689296875Q4.6876519335937505,11.72649296875,4.60576193359375,11.78129296875Q4.52387193359375,11.83599296875,4.43287193359375,11.87369296875Q4.34188193359375,11.91139296875,4.24528193359375,11.93059296875Q4.14868193359375,11.94979296875,4.05019193359375,11.94979296875Q3.95170093359375,11.94979296875,3.85510193359375,11.93059296875Q3.75850293359375,11.91139296875,3.66750893359375,11.87369296875Q3.57651393359375,11.83599296875,3.49462193359375,11.78129296875Q3.41272893359375,11.72649296875,3.34308493359375,11.65689296875Q3.20243293359375,11.51619296875,3.12631213359375,11.33249296875Q3.05019161439375,11.14869296875,3.05019181559375,10.94979296875Q3.05019201679375,10.75089296875,3.1263124335937498,10.56709296875Q3.20243293359375,10.38329296875,3.34308493359375,10.24269296875L7.58575193359375,6.00000296875Z" fill-rule="evenodd" fill="#ffffff" fill-opacity="1"/></g></g></svg>