<svg width="14" height="14" viewBox="0 0 14 14" fill="none" xmlns="http://www.w3.org/2000/svg">
<path d="M7.40007 7.0533C5.84674 4.04663 7.06674 1.39997 7.7534 0.339966C4.18007 0.466632 1.32007 3.3933 1.32007 6.99997C1.32007 7.0933 1.3334 7.18663 1.3334 7.27997C1.74674 7.09997 2.1934 6.99997 2.66674 6.99997C3.7734 6.99997 4.78674 7.5533 5.40007 8.4333C6.5134 8.7533 7.3334 9.77997 7.3334 11C7.3334 12.0133 6.7534 12.8866 5.92007 13.34C6.5734 13.5533 7.2734 13.6733 7.9934 13.6733C10.3267 13.6733 12.3801 12.4733 13.5734 10.66C12.0001 10.8133 8.92007 10.0133 7.40007 7.0533Z" fill="#4586FD"/>
<path opacity="0.5" d="M4.66675 9.66665H4.54675C4.26675 8.89331 3.53341 8.33331 2.66675 8.33331C1.56008 8.33331 0.666748 9.22665 0.666748 10.3333C0.666748 11.44 1.56008 12.3333 2.66675 12.3333C3.08008 12.3333 4.32675 12.3333 4.66675 12.3333C5.40008 12.3333 6.00008 11.7333 6.00008 11C6.00008 10.2666 5.40008 9.66665 4.66675 9.66665Z" fill="#4586FD"/>
</svg>
